<svg id="Level_2" data-name="Level 2" xmlns="http://www.w3.org/2000/svg" xmlns:xlink="http://www.w3.org/1999/xlink" viewBox="0 0 1395.481 856.416"><defs><style>.cls-1,.cls-37,.cls-38,.cls-58,.cls-61{fill:none;}.cls-2{fill:#dbdbdb;}.cls-3{fill:#aacaf9;}.cls-4{fill:#6684b1;}.cls-43,.cls-5{opacity:0.15;}.cls-6{fill:#e9e9ea;}.cls-7{fill:#fcceae;}.cls-8{fill:#45464a;}.cls-9{fill:#343b66;}.cls-10,.cls-39,.cls-60{fill:#fff;}.cls-11{opacity:0.1;}.cls-12{fill:#3a8df2;}.cls-13{fill:#463640;}.cls-14{fill:#392517;}.cls-14,.cls-18{opacity:0.08;}.cls-15{fill:#683d1e;opacity:0.05;}.cls-16{fill:#827f79;}.cls-17{opacity:0.2;}.cls-19{fill:#6bc6b3;}.cls-20{opacity:0.08;}.cls-20,.cls-29,.cls-30,.cls-47,.cls-51{isolation:isolate;}.cls-21{fill:#5f686d;}.cls-22{fill:#ccc;}.cls-23{fill:#ededed;}.cls-24{fill:#f9f9f9;}.cls-25{clip-path:url(#clip-path);}.cls-26{fill:#379b9b;}.cls-26,.cls-45{opacity:0.4;}.cls-27,.cls-30{opacity:0.2;}.cls-28{fill:#323234;}.cls-29{opacity:0.3;}.cls-31{clip-path:url(#clip-path-2);}.cls-32{clip-path:url(#clip-path-3);}.cls-33{clip-path:url(#clip-path-4);}.cls-34{fill:#c3c3c3;}.cls-35{fill:#e5e5e5;}.cls-36{fill:#f5f5f5;}.cls-37,.cls-38{stroke:#c3c3c3;}.cls-37,.cls-38,.cls-58,.cls-61{stroke-miterlimit:10;}.cls-37{stroke-width:1.132px;}.cls-38{stroke-width:0.856px;}.cls-39{font-size:33px;}.cls-39,.cls-60{font-family:Roboto-Regular, Roboto;}.cls-40{letter-spacing:-0.006em;}.cls-41{letter-spacing:-0.009em;}.cls-42{letter-spacing:-0.007em;}.cls-43{fill:#0a0a0a;}.cls-44{fill:#a3a3a3;}.cls-46{fill:#c8c8c8;}.cls-47{fill:#070707;fill-opacity:0.4;opacity:0.39;}.cls-48{fill:#3682ce;}.cls-49{fill:#e6e8e8;}.cls-50{fill:#f7fbfc;}.cls-51{fill:#020202;opacity:0.1;}.cls-52{fill:#f4f6f7;}.cls-53{fill:#777673;}.cls-54{fill:#363638;}.cls-55{fill:#eeefec;}.cls-56{fill:#455564;}.cls-57{fill:#4c4d4e;}.cls-58{stroke:#c8c8c8;}.cls-59{fill:#8cd4da;}.cls-60{font-size:44px;}.cls-61{stroke:#ebf2f1;stroke-width:11px;}</style><clipPath id="clip-path"><polygon class="cls-1" points="76.512 720.25 99.537 706.867 117.045 717.038 94.009 730.421 76.512 720.25"/></clipPath><clipPath id="clip-path-2"><polygon class="cls-1" points="129.565 722.837 152.59 709.454 170.098 719.625 147.063 733.008 129.565 722.837"/></clipPath><clipPath id="clip-path-3"><polygon class="cls-1" points="186.111 724.13 209.135 710.747 226.644 720.919 203.608 734.301 186.111 724.13"/></clipPath><clipPath id="clip-path-4"><polygon class="cls-1" points="239.989 725.424 263.014 712.041 280.522 722.212 257.486 735.595 239.989 725.424"/></clipPath></defs><title>Google Map Level 3</title><g id="bkr"><rect class="cls-2" x="24.792" y="149.735" width="1370.689" height="706.68" rx="41.289" ry="41.289"/><rect class="cls-3" x="2.648" y="73.967" width="1352.814" height="722.522" rx="22.995" ry="22.995"/></g><g id="screens"><rect class="cls-4" x="1326.17" y="77.469" width="29.292" height="719.014" rx="14.646" ry="14.646"/><rect class="cls-4" x="1130.788" y="2.737" width="19.869" height="159.013" rx="9.935" ry="9.935" transform="translate(1222.966 -1058.479) rotate(90)"/><rect class="cls-4" x="836.241" y="2.737" width="19.869" height="159.013" rx="9.935" ry="9.935" transform="translate(928.42 -763.932) rotate(90)"/></g><g id="extras"><g id="people"><path class="cls-5" d="M794.466,193.986c10.906,6.341,12.83,15.6,4.273,20.575s-24.481,3.857-35.388-2.484-12.831-15.6-4.275-20.575S783.559,187.644,794.466,193.986Z"/><path class="cls-6" d="M752.553,37.72c-3.98,8.44-5.774,21.99-6.433,33.748l11.548,1.225,11.037-28.455"/><path class="cls-7" d="M755.1,96.309s.413,4.214.7,5.4c.18.76.294,1.279.436,1.833.2.763.245,1.143-.008,1.325s-.691.241-1.129-1.309a6.791,6.791,0,0,0,1.428,2.84c.829.889,2.04,1.8,1.716,2.266s-1.209,0-1.209,0-.107.764-1.2.164c0,0-.129.616-1.242-.164,0,0-.439.511-1.464-.512s-4.681-4.973-4.752-12.36Z"/><path class="cls-6" d="M746.136,71.234c-1.149,20.569,2.049,26.886,2.049,26.886l6.978.189,2.5-25.616"/><path class="cls-6" d="M757.754,71.576a5.809,5.809,0,1,0-5.807,5.806A5.808,5.808,0,0,0,757.754,71.576Z"/><circle class="cls-6" cx="760.387" cy="41.578" r="8.731"/><path class="cls-8" d="M790.841,210.224c-2.361,2.362-5.225,3.332-6.4,2.16s-.206-4.035,2.156-6.4,5.222-3.33,6.4-2.161c.7.707.654,2.556.655,3.266A22.149,22.149,0,0,1,790.841,210.224Z"/><path class="cls-7" d="M790.821,207.766c-1.546,1.474-3.389,2.048-4.12,1.283s-.068-2.579,1.476-4.054,3.391-2.048,4.12-1.281S792.367,206.294,790.821,207.766Z"/><path class="cls-8" d="M769.692,198.118c-2.267,2.267-5.017,3.2-6.143,2.074s-.2-3.875,2.071-6.145,5.017-3.2,6.142-2.077c.679.679.628,2.456.63,3.137A21.021,21.021,0,0,1,769.692,198.118Z"/><path class="cls-7" d="M769.674,195.756c-1.486,1.417-3.256,1.968-3.958,1.232s-.065-2.476,1.417-3.893,3.257-1.967,3.957-1.231S771.157,194.343,769.674,195.756Z"/><path class="cls-9" d="M793.657,166.427s6-33.826,8.955-55.367l-46.118-8.854c-.217,10.474-.584,30.486.594,44.934,1.776,21.764,9.272,46.938,9.272,46.938h.006a4.326,4.326,0,0,0,2.792,1.281c1.952,0,3.309-.711,3.309-1.632l-.785-34.958,3.811-29.724s1.849,22.135,3.22,33.963,8.362,42.242,8.362,42.242a2.757,2.757,0,0,0,3.015,2.709,5.3,5.3,0,0,0,3.561-1.672h.009Z"/><path class="cls-10" d="M807.827,58.689c-.263-2.685-.589-5.226-1.023-7.628-1.468-7.2-4.213-11.495-10.212-16.276a20.5,20.5,0,0,0-2.623-1.731c-7.641-4.311-22.549-7.663-32.048-4.006-12.487,4.8-12.777,19.589-12.777,19.559V92.53c0,6.013-.044,12.914,8.038,20.218,4.824,4.362,17.332,11.714,27.522,13.893a22.534,22.534,0,0,0,7.488.451c13.179-1.847,15.635-9.416,15.635-19.026C807.822,97.774,807.827,58.689,807.827,58.689Z"/><path class="cls-11" d="M807.827,58.689c-.263-2.685-.589-5.226-1.023-7.628a33.217,33.217,0,0,0-1.208-4.439,7.06,7.06,0,0,0-4.887-1.96,6.926,6.926,0,0,0-6.753,5.477L793.91,51.5v56.976c0,7.547-.237,16.459-7.084,18.5.145.022.212.038.355.057s.237.036.372.053.267.029.411.043.29.029.441.041l.376.028c.263.017.521.03.783.034.071,0,.139,0,.211,0,.208,0,.416,0,.62,0,.1,0,.189-.006.284-.008.187-.007.375-.016.561-.03.081,0,.167-.01.25-.018.262-.02.522-.048.774-.083,13.18-1.847,15.6-9.416,15.6-19.026C807.857,97.774,807.827,58.689,807.827,58.689Z"/><path class="cls-10" d="M788.776,127.193l-.381-.028C788.523,127.175,788.649,127.185,788.776,127.193Z"/><path class="cls-10" d="M790.679,127.223c-.1,0-.19,0-.284.008C790.489,127.227,790.584,127.225,790.679,127.223Z"/><path class="cls-10" d="M789.774,127.231c-.072,0-.141,0-.213,0C789.633,127.231,789.7,127.23,789.774,127.231Z"/><path class="cls-10" d="M787.945,127.124c-.144-.014-.287-.027-.43-.043C787.658,127.1,787.8,127.11,787.945,127.124Z"/><path class="cls-10" d="M791.49,127.175c-.083.008-.169.013-.25.018C791.321,127.188,791.407,127.183,791.49,127.175Z"/><path class="cls-11" d="M790.4,127.231c-.2,0-.413,0-.621,0C789.982,127.234,790.19,127.234,790.4,127.231Z"/><path class="cls-11" d="M792.264,127.092c-.252.035-.512.063-.774.083C791.752,127.155,792.011,127.127,792.264,127.092Z"/><path class="cls-11" d="M791.24,127.193c-.186.014-.374.023-.561.03C790.867,127.216,791.053,127.207,791.24,127.193Z"/><path class="cls-11" d="M787.515,127.081c-.135-.017-.274-.034-.41-.053C787.241,127.047,787.38,127.064,787.515,127.081Z"/><path class="cls-11" d="M789.561,127.227c-.261,0-.522-.017-.785-.034C789.039,127.21,789.3,127.223,789.561,127.227Z"/><path class="cls-11" d="M788.4,127.165c-.151-.012-.3-.025-.45-.041C788.094,127.14,788.244,127.153,788.4,127.165Z"/><polygon class="cls-12" points="771.19 39.871 773.126 42.596 772.054 45.351 776.595 84.986 771.07 91.663 765.438 78.54 770.312 44.311 769.249 40.273 771.19 39.871"/><path class="cls-13" d="M765.685,17.2l1.168-8.652,12.7,1.751-.987,7.311L780.719,23a12.126,12.126,0,0,0,4.443-5.371c2.387-5.142,2.369-9.157,1.3-12.32-1.434-4.272-3.862-3.973-3.862-3.973s-.88-1.654-4.317-1.285-14.2,2.76-15.333.518a1.558,1.558,0,0,0,0,1.077A2.376,2.376,0,0,1,761.432.425C759.557,4.343,760.359,12.636,765.685,17.2Z"/><path class="cls-7" d="M781.7,17.178l-14.244,7.47V30.63c0,.009.476.016.479.023.033,1.042.968,2.075,2.342,2.869a11.374,11.374,0,0,0,10.218,0,3.048,3.048,0,0,0,1.631-2.816,1.938,1.938,0,0,0-.426-.048Z"/><path class="cls-14" d="M781.7,17.049H767.457V30.63c0,.009.476.016.479.023.033,1.042.968,2.075,2.342,2.869a11.374,11.374,0,0,0,10.218,0,3.048,3.048,0,0,0,1.631-2.816,1.938,1.938,0,0,0-.426-.048Z"/><path class="cls-15" d="M781.7,11.482l-14.244,7.471v5.98c0,.009.476.017.479.023.033,1.04.968,2.076,2.342,2.87a11.387,11.387,0,0,0,10.218,0,3.05,3.05,0,0,0,1.631-2.817,2.067,2.067,0,0,0-.426-.048Z"/><path class="cls-7" d="M782.725,17.53c-.276,6.872-4.835,13.875-10.106,13.664s-9.257-7.556-8.983-14.43c.108-2.688.02-6.31,1.212-8.3,1.86-3.1,5.624-3.889,8.832-3.76C778.95,4.914,783,10.658,782.725,17.53Z"/><path class="cls-13" d="M762.862,8.853c5.652,4.826,15.7,1.482,15.7,1.482l.681,7.364,4.791.5.551-13.821-21.5-.864Z"/><path class="cls-7" d="M782.7,18.173a1.759,1.759,0,1,0-1.894,1.613A1.76,1.76,0,0,0,782.7,18.173Z"/><path class="cls-10" d="M787.191,53.729l11.12,37.193L812.235,88.6s.221-3.452.223-7.159c.018-15.6-2.213-27.326-6.43-35.638"/><path class="cls-10" d="M807.083,50.305a10.235,10.235,0,1,0-10.194,10.272A10.237,10.237,0,0,0,807.083,50.305Z"/><path class="cls-16" d="M763.85,77.055c-3.417,0-6.191,1.622-6.191,3.621a2.18,2.18,0,0,0,.1.648l.956,9.654c0,1.659,2.3,3.005,5.131,3.005s5.13-1.346,5.13-3.005l.957-9.654a2.179,2.179,0,0,0,.1-.648C770.04,78.677,767.269,77.055,763.85,77.055Z"/><g class="cls-17"><path d="M770.04,80.676c0,2-2.771,3.627-6.19,3.627s-6.191-1.623-6.191-3.627,2.774-3.621,6.191-3.621S770.04,78.677,770.04,80.676Z"/></g><path class="cls-10" d="M763.85,77.547c3.087,0,5.7,1.434,5.7,3.129s-2.61,3.133-5.7,3.133-5.7-1.435-5.7-3.133,2.61-3.129,5.7-3.129m0-.492c-3.417,0-6.191,1.622-6.191,3.621s2.774,3.627,6.191,3.627,6.19-1.623,6.19-3.627-2.771-3.621-6.19-3.621Z"/><path class="cls-7" d="M774.4,86.938s-4.23.16-5.45.036c-.777-.075-1.307-.119-1.874-.185-.783-.091-1.165-.089-1.314.189s-.144.716,1.451.94a6.752,6.752,0,0,1-3.007-1.033c-1-.7-2.055-1.777-2.478-1.394s.164,1.2.164,1.2-.742.209,0,1.213c0,0-.593.215.328,1.211,0,0-.447.5.706,1.381s5.561,3.965,12.888,3.04Z"/><path class="cls-10" d="M803.361,81.8l-33.8,5.154.991,6.62s13.946,3.5,35.408,2.23"/><path class="cls-10" d="M806.064,95.8a7.135,7.135,0,1,0-8.034-6.107A7.134,7.134,0,0,0,806.064,95.8Z"/><g class="cls-5"><path d="M700.616,245.464c10.706,6.224,12.594,15.31,4.2,20.194s-24.027,3.785-34.733-2.439-12.592-15.311-4.195-20.193S689.912,239.24,700.616,245.464Z"/></g><path class="cls-10" d="M659.065,97.363c-3.91,8.291-5.674,21.605-6.319,33.157l11.343,1.2,10.846-27.958"/><path class="cls-7" d="M661.57,154.927s.407,4.139.688,5.31c.179.747.289,1.257.43,1.8.193.75.241,1.122-.009,1.3s-.678.235-1.109-1.287a6.644,6.644,0,0,0,1.4,2.789c.813.875,2,1.764,1.686,2.227s-1.189,0-1.189,0-.1.751-1.182.16c0,0-.129.605-1.222-.16,0,0-.431.5-1.437-.5s-4.6-4.887-4.671-12.144Z"/><path class="cls-7" d="M652.761,130.292c-1.129,20.209,2.013,26.415,2.013,26.415l6.855.185,2.46-25.169"/><path class="cls-10" d="M664.174,130.626a5.707,5.707,0,1,0-5.706,5.706A5.707,5.707,0,0,0,664.174,130.626Z"/><path class="cls-10" d="M675.34,101.154a8.579,8.579,0,1,0-8.578,8.578A8.578,8.578,0,0,0,675.34,101.154Z"/><path class="cls-8" d="M695.252,256.889c2.33-2.331,5.151-3.29,6.3-2.14s.194,3.97-2.134,6.3-5.151,3.29-6.3,2.142c-.7-.693-.64-3.524-.639-4.223C692.869,258.249,694.327,257.814,695.252,256.889Z"/><path class="cls-7" d="M695.3,256.637c1.518-1.448,3.331-2.012,4.048-1.259s.068,2.535-1.449,3.981"/><path class="cls-8" d="M675.952,245.583c2.329-2.329,5.15-3.289,6.3-2.14s.194,3.972-2.135,6.3-5.149,3.289-6.3,2.141c-.7-.694-.64-3.525-.64-4.223C673.567,246.943,675.027,246.51,675.952,245.583Z"/><path class="cls-7" d="M676,245.332c1.517-1.447,3.331-2.013,4.048-1.26s.068,2.536-1.449,3.983"/><path class="cls-9" d="M709.335,149.839l-47.906,1.632,9.382,59.2,2.158,36.312h.006c.041,2.035,1.144,2.3,3.179,2.3,2.011,0,2.773-.262,2.816-2.3h.017s3.447-23,5.134-37.768a213.2,213.2,0,0,0,1.185-23.264l5.181,32.18,1.571,40.034c0,.042,0,.093,0,.137,0,1.238,1.2,2.259,3.444,2.254,2.139,0,2.972-1.035,3.045-2.2.272-1.354,6.123-30.563,7.566-42.688C707.585,203.248,711.2,153.728,709.335,149.839Z"/><path class="cls-10" d="M713.165,108.74c1.677,11.768,1.042,56.008,1.042,56.008,0,9.442-2.377,16.878-15.327,18.693a21.721,21.721,0,0,1-7.286-.442c-10.012-2.141-21.911-9.366-26.652-13.65-7.939-7.177-7.365-13.957-7.365-19.865V106.329c0,.029-.248-14.5,12.022-19.219,9.334-3.591,23.572-.3,31.081,3.938C700.68,91.048,711.416,96.476,713.165,108.74Z"/><path class="cls-11" d="M712.228,104.789a6.768,6.768,0,0,0-5-2.337c-7.49,0-6.924,8.485-6.924,8.485V158.55c0,18.314-4.209,23.4-6.914,24.764a19.553,19.553,0,0,0,5.513.127c12.95-1.815,15.314-9.251,15.314-18.693,0,0,.628-44.241-1.049-56.008A22.518,22.518,0,0,0,712.228,104.789Z"/><path class="cls-7" d="M694.6,76.52c.073-7.091-4.06-12.884-9.5-12.94-3.312-.034-7.058.9-8.879,4.145-1.169,2.088-.729,5.818-.758,8.593-.032,3.143.422,6.029,2.456,8.276v3c0,.008-.174.015-.171.023a3.274,3.274,0,0,0,1.887,2.694,10.368,10.368,0,0,0,9.447,0,2.809,2.809,0,0,0,1.488-2.646,2.366,2.366,0,0,0-.442-.044v-.877C694.2,84.428,694.562,80.717,694.6,76.52Z"/><path class="cls-13" d="M694.77,75.571c4.711-1.353,5.649-6.511,3.074-10.343C695.39,61.575,691,60.712,685.922,57.9c-3.687-2.04-5.529.4-5.529.4a3.988,3.988,0,0,0-4.2.638c-1.422,1.031-2.663,3.191-4.044,5.585a15.138,15.138,0,0,0-.013,15.116c1.091,1.94,4.3,5.777,8.132,6.9,2.183.639,9.872,1.339,11.387-3.941C692.492,79.674,692.748,76.152,694.77,75.571Z"/><path class="cls-18" d="M694.77,75.571c-2.022.581-2.711,4.1-3.55,7.025-.156.542.949,1.018-1.086,1.44v2.711c4.07-2.319,4.428-6.03,4.47-10.227,0-.348.21-.692.193-1.034C694.714,75.513,694.856,75.547,694.77,75.571Z"/><path class="cls-10" d="M743.039,137.345a4.866,4.866,0,0,1,2.584-4.578l-.092-.613a.759.759,0,0,1,.375-.683,2.407,2.407,0,0,1,2.186-.222.782.782,0,0,1,.516.594l.062.612a4.652,4.652,0,0,1,3.5,3.964c0,.018.008.037.011.056l1.285,12.766a2.327,2.327,0,0,1-1.162,2.041,7.277,7.277,0,0,1-6.556.659,2.248,2.248,0,0,1-1.485-1.769l-1.227-12.765Z"/><path class="cls-11" d="M744.466,139.173a7.254,7.254,0,0,0,6.555-.658,2.327,2.327,0,0,0,1.162-2.04l1.286,12.766a2.327,2.327,0,0,1-1.162,2.041,7.277,7.277,0,0,1-6.556.659,2.33,2.33,0,0,1-1.543-1.769l-1.286-12.765A2.325,2.325,0,0,0,744.466,139.173Z"/><path class="cls-11" d="M746.021,132.748a2.247,2.247,0,0,0,1.125.152,2.214,2.214,0,0,0,1.071-.374.773.773,0,0,0,.389-.683l.125,1.236a.772.772,0,0,1-.389.682,2.242,2.242,0,0,1-1.071.374,2.217,2.217,0,0,1-1.126-.152.78.78,0,0,1-.519-.594l-.124-1.235A.782.782,0,0,0,746.021,132.748Z"/><path class="cls-19" d="M744.591,140.409a7.266,7.266,0,0,0,6.555-.659,2.321,2.321,0,0,0,1.161-2.04l.484,4.794a2.331,2.331,0,0,1-1.161,2.041,7.271,7.271,0,0,1-6.557.659,2.329,2.329,0,0,1-1.545-1.768l-.483-4.794A2.331,2.331,0,0,0,744.591,140.409Z"/><path class="cls-19" d="M748.806,129.854a1.175,1.175,0,0,0-.748-.917,2.684,2.684,0,0,0-1.331-.186,2.649,2.649,0,0,0-1.267.45,1.163,1.163,0,0,0-.551,1.046l.2,1.946a1.174,1.174,0,0,0,.749.918,2.649,2.649,0,0,0,1.333.187h0a2.654,2.654,0,0,0,1.265-.449A1.173,1.173,0,0,0,749,131.8Z"/><path class="cls-11" d="M745.658,131.164a2.66,2.66,0,0,0,1.331.185h0a2.632,2.632,0,0,0,1.266-.447,1.17,1.17,0,0,0,.549-1.048l.2,1.95a1.173,1.173,0,0,1-.552,1.045,2.654,2.654,0,0,1-1.265.449h0a2.649,2.649,0,0,1-1.333-.187,1.174,1.174,0,0,1-.749-.918l-.2-1.946A1.178,1.178,0,0,0,745.658,131.164Z"/><path class="cls-7" d="M742.02,143.208s7.956-.031,9.38-.615c1.188-.486,1.8-1.03,2.422-.451.838.776.259,1.42.259,1.42a1.143,1.143,0,0,1,.114,1.824s.973.706-.368,1.714c0,0,1.209.694-1.539,2.029-3.25,1.576-9.448.9-9.522.9Z"/><path class="cls-7" d="M753.966,142.282a2.479,2.479,0,0,0-1.982-.756c-1.314.06-2.155,1.082-1.717,2.18C750.267,143.706,755.13,144.316,753.966,142.282Z"/><path class="cls-7" d="M711.417,139.933l33.5,3.179,1.12,6.668a177.5,177.5,0,0,1-35.245,4.4"/><path class="cls-7" d="M713,153.813a7.136,7.136,0,1,1,4.53-9.017A7.138,7.138,0,0,1,713,153.813Z"/><path class="cls-10" d="M692.341,110.089l-.008.009,11.2,37.377,15-6.817s-1.765-.046-2.221-3.726c-1.939-15.647-1.7-27.118-5.351-35-1.738-3.754-21.612-.07-18.635,8.166"/><path class="cls-10" d="M712.446,106.2a10.3,10.3,0,1,0-9.171,11.311A10.3,10.3,0,0,0,712.446,106.2Z"/></g><g id="Device_Bench" data-name="Device Bench"><path class="cls-20" d="M718.349,797.78H31.379A25.879,25.879,0,0,1,5.5,771.9V725.925H625.745Z"/><path class="cls-21" d="M616.571,796.578H47.312l8.624-95.506c.3-3.372,2.3-5.894,4.655-5.892H608.007c2.486,0,4.542,2.789,4.687,6.367Z"/><rect class="cls-22" x="47.303" y="757.38" width="569.263" height="39.204"/><rect class="cls-23" x="47.303" y="745.318" width="569.263" height="11.594"/><path class="cls-20" d="M75.055,724.7a1.867,1.867,0,0,0,1.1,1.584L90.132,734.4a5.91,5.91,0,0,0,5.359,0l25.047-14.545a1.886,1.886,0,0,0,1.1-1.549l.006-.575h0a1.886,1.886,0,0,0-1.1-1.551l-13.988-8.126a5.909,5.909,0,0,0-5.36,0L76.154,722.6a1.878,1.878,0,0,0-1.1,1.559Z"/><path class="cls-24" d="M73.486,722.108a1.867,1.867,0,0,0,1.1,1.584l13.978,8.124a5.908,5.908,0,0,0,5.358,0l25.047-14.545a1.883,1.883,0,0,0,1.1-1.549l.006-.575h0a1.886,1.886,0,0,0-1.1-1.551l-13.988-8.126a5.909,5.909,0,0,0-5.36,0L74.586,720.016a1.878,1.878,0,0,0-1.1,1.56Z"/><polygon class="cls-1" points="76.512 720.25 99.537 706.867 117.045 717.038 94.009 730.421 76.512 720.25"/><polygon class="cls-1" points="76.322 720.252 99.489 706.788 117.235 717.035 94.069 730.499 76.322 720.252"/><g class="cls-25"><polygon class="cls-26" points="117.073 716.991 99.537 706.804 99.51 706.82 76.404 720.25 94.009 730.483 94.036 730.468 117.153 717.038 117.073 716.991"/></g><g class="cls-27"><path d="M82.541,726.909a.536.536,0,0,1,0-1.013,1.916,1.916,0,0,1,1.743,0,.537.537,0,0,1,0,1.013A1.922,1.922,0,0,1,82.541,726.909Z"/></g><path class="cls-28" d="M109.851,711.045a.173.173,0,0,1,0-.327.617.617,0,0,1,.561,0,.174.174,0,0,1,0,.328A.622.622,0,0,1,109.851,711.045Z"/><path class="cls-29" d="M118.97,717.552a1.883,1.883,0,0,0,1.1-1.549l0-.522a1.914,1.914,0,0,1-1.1,1.51Z"/><line class="cls-1" x1="74.587" y1="723.972" x2="88.564" y2="732.096"/><path class="cls-29" d="M74.587,723.972a1.863,1.863,0,0,1-1.1-1.583v-.459a1.935,1.935,0,0,0,1.1,1.481v.561Z"/><polygon class="cls-30" points="74.587 723.972 88.564 732.096 88.564 731.535 74.587 723.411 74.587 723.972"/><polygon class="cls-30" points="118.97 717.552 93.923 732.097 93.923 731.536 118.97 716.991 118.97 717.552"/><path class="cls-29" d="M88.564,731.535a5.91,5.91,0,0,0,5.359,0v.561a5.9,5.9,0,0,1-5.359,0Z"/><path class="cls-20" d="M128.108,727.282a1.869,1.869,0,0,0,1.1,1.584l13.978,8.124a5.908,5.908,0,0,0,5.358,0l25.047-14.546a1.879,1.879,0,0,0,1.1-1.548l.006-.576h0a1.884,1.884,0,0,0-1.1-1.55L159.6,710.645a5.907,5.907,0,0,0-5.359,0L129.208,725.19a1.878,1.878,0,0,0-1.1,1.559Z"/><path class="cls-24" d="M126.539,724.7a1.869,1.869,0,0,0,1.1,1.584l13.978,8.124a5.908,5.908,0,0,0,5.358,0l25.047-14.545a1.882,1.882,0,0,0,1.1-1.549l.006-.575h0a1.884,1.884,0,0,0-1.1-1.551l-13.988-8.126a5.907,5.907,0,0,0-5.359,0L127.639,722.6a1.878,1.878,0,0,0-1.1,1.559Z"/><polygon class="cls-1" points="129.565 722.837 152.59 709.454 170.098 719.625 147.063 733.008 129.565 722.837"/><polygon class="cls-1" points="129.376 722.839 152.542 709.375 170.288 719.622 147.122 733.086 129.376 722.839"/><g class="cls-31"><polygon class="cls-26" points="170.126 719.578 152.59 709.391 152.563 709.407 129.457 722.837 147.063 733.069 147.09 733.055 170.207 719.625 170.126 719.578"/></g><g class="cls-27"><path d="M135.6,729.5a.536.536,0,0,1,0-1.013,1.914,1.914,0,0,1,1.742,0,.536.536,0,0,1,0,1.012A1.916,1.916,0,0,1,135.6,729.5Z"/></g><path class="cls-28" d="M162.9,713.632a.173.173,0,0,1,0-.327.617.617,0,0,1,.561,0,.173.173,0,0,1,0,.327A.619.619,0,0,1,162.9,713.632Z"/><path class="cls-29" d="M172.024,720.139a1.883,1.883,0,0,0,1.1-1.549l0-.522a1.913,1.913,0,0,1-1.1,1.51Z"/><line class="cls-1" x1="127.64" y1="726.559" x2="141.618" y2="734.683"/><path class="cls-29" d="M127.64,726.559a1.867,1.867,0,0,1-1.1-1.584v-.459a1.932,1.932,0,0,0,1.1,1.481v.562Z"/><polygon class="cls-30" points="127.64 726.559 141.618 734.683 141.618 734.122 127.64 725.998 127.64 726.559"/><polygon class="cls-30" points="172.024 720.139 146.976 734.684 146.976 734.123 172.024 719.578 172.024 720.139"/><path class="cls-29" d="M141.618,734.122a5.908,5.908,0,0,0,5.358,0v.561a5.9,5.9,0,0,1-5.358,0Z"/><path class="cls-20" d="M184.653,728.575a1.868,1.868,0,0,0,1.1,1.584l13.977,8.124a5.9,5.9,0,0,0,5.359,0l25.047-14.545a1.883,1.883,0,0,0,1.1-1.549l0-.575h0a1.886,1.886,0,0,0-1.1-1.551l-13.989-8.126a5.913,5.913,0,0,0-5.359,0l-25.037,14.545a1.883,1.883,0,0,0-1.1,1.56Z"/><path class="cls-24" d="M183.084,725.989a1.868,1.868,0,0,0,1.1,1.583l13.977,8.124a5.9,5.9,0,0,0,5.359,0l25.047-14.545a1.883,1.883,0,0,0,1.1-1.549l0-.575h0a1.887,1.887,0,0,0-1.1-1.551l-13.989-8.126a5.913,5.913,0,0,0-5.359,0L184.184,723.9a1.883,1.883,0,0,0-1.1,1.56Z"/><polygon class="cls-1" points="186.111 724.13 209.135 710.747 226.644 720.919 203.608 734.301 186.111 724.13"/><polygon class="cls-1" points="185.921 724.132 209.088 710.669 226.834 720.915 203.668 734.379 185.921 724.132"/><g class="cls-32"><polygon class="cls-26" points="226.671 720.872 209.135 710.684 209.109 710.7 186.003 724.13 203.608 734.363 203.635 734.348 226.752 720.918 226.671 720.872"/></g><g class="cls-27"><path d="M192.14,730.79a.537.537,0,0,1,0-1.014,1.923,1.923,0,0,1,1.743,0,.537.537,0,0,1,0,1.013A1.925,1.925,0,0,1,192.14,730.79Z"/></g><path class="cls-28" d="M219.449,714.925a.173.173,0,0,1,0-.327.625.625,0,0,1,.562,0,.175.175,0,0,1,0,.328A.624.624,0,0,1,219.449,714.925Z"/><path class="cls-29" d="M228.569,721.432a1.879,1.879,0,0,0,1.1-1.548l0-.523a1.915,1.915,0,0,1-1.1,1.51Z"/><line class="cls-1" x1="184.186" y1="727.853" x2="198.163" y2="735.977"/><path class="cls-29" d="M184.186,727.853a1.868,1.868,0,0,1-1.1-1.584v-.459a1.931,1.931,0,0,0,1.1,1.481v.562Z"/><polygon class="cls-30" points="184.186 727.853 198.163 735.977 198.163 735.415 184.186 727.291 184.186 727.853"/><polygon class="cls-30" points="228.569 721.432 203.522 735.978 203.522 735.416 228.569 720.871 228.569 721.432"/><path class="cls-29" d="M198.163,735.415a5.9,5.9,0,0,0,5.359,0v.562a5.91,5.91,0,0,1-5.359,0Z"/><path class="cls-20" d="M238.532,729.869a1.867,1.867,0,0,0,1.1,1.584l13.978,8.124a5.908,5.908,0,0,0,5.358,0l25.047-14.546a1.881,1.881,0,0,0,1.1-1.548l.006-.576h0a1.887,1.887,0,0,0-1.1-1.551l-13.988-8.126a5.915,5.915,0,0,0-5.36,0l-25.036,14.546a1.878,1.878,0,0,0-1.1,1.559Z"/><path class="cls-24" d="M236.963,727.282a1.869,1.869,0,0,0,1.1,1.584l13.978,8.124a5.908,5.908,0,0,0,5.358,0l25.047-14.546a1.881,1.881,0,0,0,1.1-1.548l.006-.576h0a1.884,1.884,0,0,0-1.1-1.55l-13.988-8.126a5.909,5.909,0,0,0-5.36,0L238.063,725.19a1.878,1.878,0,0,0-1.1,1.559Z"/><polygon class="cls-1" points="239.989 725.424 263.014 712.041 280.522 722.212 257.486 735.595 239.989 725.424"/><polygon class="cls-1" points="239.799 725.426 262.966 711.962 280.712 722.209 257.546 735.673 239.799 725.426"/><g class="cls-33"><polygon class="cls-26" points="280.55 722.165 263.014 711.978 262.987 711.993 239.881 725.424 257.486 735.656 257.514 735.642 280.63 722.212 280.55 722.165"/></g><g class="cls-27"><path d="M246.018,732.083a.537.537,0,0,1,0-1.014,1.917,1.917,0,0,1,1.742,0,.536.536,0,0,1,0,1.012A1.918,1.918,0,0,1,246.018,732.083Z"/></g><path class="cls-28" d="M273.328,716.219a.173.173,0,0,1,0-.327.617.617,0,0,1,.561,0,.173.173,0,0,1,0,.327A.619.619,0,0,1,273.328,716.219Z"/><path class="cls-29" d="M282.447,722.726a1.884,1.884,0,0,0,1.1-1.549l0-.522a1.911,1.911,0,0,1-1.1,1.509Z"/><line class="cls-1" x1="238.064" y1="729.146" x2="252.042" y2="737.27"/><path class="cls-29" d="M238.064,729.146a1.866,1.866,0,0,1-1.1-1.584V727.1a1.933,1.933,0,0,0,1.1,1.481v.562Z"/><polygon class="cls-30" points="238.064 729.146 252.042 737.27 252.042 736.709 238.064 728.585 238.064 729.146"/><polygon class="cls-30" points="282.447 722.726 257.4 737.271 257.4 736.71 282.447 722.164 282.447 722.726"/><path class="cls-29" d="M252.042,736.709a5.908,5.908,0,0,0,5.358,0v.561a5.908,5.908,0,0,1-5.358,0Z"/><ellipse class="cls-20" cx="337.073" cy="727.847" rx="29.159" ry="8.07"/><ellipse class="cls-34" cx="333.792" cy="725.925" rx="22.591" ry="6.252"/><path class="cls-35" d="M306.237,692v31.274c0,1.679,7.406,4.075,8.459,4.414a57.663,57.663,0,0,0,23.907,2.173c7.287-.8,16.859-2.377,22.253-7.708L360.091,692H306.237"/><ellipse class="cls-36" cx="333.164" cy="691.997" rx="26.927" ry="5.382"/><ellipse class="cls-35" cx="333.791" cy="691.721" rx="4.742" ry="0.948"/><path class="cls-37" d="M360.639,709.611s-29.575,9.3-54.4,0"/><ellipse class="cls-20" cx="400.232" cy="729.672" rx="22.04" ry="6.1"/><ellipse class="cls-34" cx="397.752" cy="728.219" rx="17.076" ry="4.726"/><path class="cls-35" d="M376.925,702.575v23.638c0,1.27,5.6,3.08,6.393,3.337a43.578,43.578,0,0,0,18.071,1.642c5.508-.606,12.743-1.8,16.82-5.826l-.578-22.791H376.925"/><ellipse class="cls-36" cx="397.278" cy="702.575" rx="20.353" ry="4.068"/><ellipse class="cls-35" cx="397.752" cy="702.366" rx="3.584" ry="0.716"/><path class="cls-38" d="M418.045,715.888s-22.354,7.027-41.12,0"/><ellipse class="cls-20" cx="450.664" cy="729.562" rx="22.04" ry="6.1"/><ellipse class="cls-34" cx="448.184" cy="728.11" rx="17.076" ry="4.726"/><path class="cls-35" d="M427.357,702.465V726.1c0,1.27,5.6,3.08,6.393,3.337a43.575,43.575,0,0,0,18.07,1.642c5.509-.606,12.744-1.8,16.821-5.826l-.578-22.791H427.357"/><ellipse class="cls-36" cx="447.71" cy="702.465" rx="20.353" ry="4.068"/><ellipse class="cls-35" cx="448.184" cy="702.256" rx="3.584" ry="0.716"/><path class="cls-38" d="M468.477,715.778s-22.354,7.027-41.12,0"/></g></g><g id="tags"><text class="cls-39" transform="translate(234.307 665.727)">D<tspan class="cls-40" x="21.64" y="0">e</tspan><tspan x="38.914" y="0">vice Bench</tspan></text><text class="cls-39" transform="translate(1317.41 483.328) rotate(-90)">Sc<tspan class="cls-41" x="36.851" y="0">r</tspan><tspan x="47.711" y="0">eens</tspan></text><text class="cls-39" transform="translate(1088.873 129.979)">Displ<tspan class="cls-42" x="73.187" y="0">a</tspan><tspan x="90.895" y="0">y</tspan></text><text class="cls-39" transform="translate(827.978 131.148)">Sc<tspan class="cls-41" x="36.851" y="0">r</tspan><tspan x="47.711" y="0">een</tspan></text></g><g id="arae-3-open"><g id="table_details" data-name="table details"><rect class="cls-43" x="762.904" y="371.541" width="469.562" height="162.463" rx="81.231" ry="81.231"/><polygon class="cls-44" points="811.39 541.975 806.828 542.975 802.265 541.975 802.265 475.863 811.39 475.863 811.39 541.975"/><polygon class="cls-45" points="811.39 541.975 806.828 542.975 806.828 475.863 811.39 475.863 811.39 541.975"/><polygon class="cls-44" points="1158.013 541.975 1162.576 542.975 1167.138 541.975 1167.138 475.863 1158.013 475.863 1158.013 541.975"/><polygon class="cls-45" points="1158.013 541.975 1162.576 542.975 1162.576 475.863 1158.013 475.863 1158.013 541.975"/><polygon class="cls-44" points="775.343 461.07 770.78 462.07 766.218 461.07 766.218 394.958 775.343 394.958 775.343 461.07"/><polygon class="cls-45" points="775.343 461.07 770.78 462.07 770.78 394.958 775.343 394.958 775.343 461.07"/><polygon class="cls-44" points="1210.781 461.07 1215.343 462.07 1219.906 461.07 1219.906 394.958 1210.781 394.958 1210.781 461.07"/><polygon class="cls-45" points="1210.781 461.07 1215.343 462.07 1215.343 394.958 1210.781 394.958 1210.781 461.07"/><rect class="cls-44" x="755.571" y="326.303" width="469.562" height="162.463" rx="81.231" ry="81.231"/><rect class="cls-46" x="753.332" y="316.727" width="469.562" height="162.463" rx="81.231" ry="81.231"/></g><g id="back_chairs" data-name="back chairs"><path class="cls-47" d="M1159.581,296.916l1.03,56.374h0l-54.346.967h0l-1-56.362h0l.008-.027a25.236,25.236,0,0,1,24.8-25.664l3.894-.07A25.236,25.236,0,0,1,1159.581,296.916Z"/><path class="cls-48" d="M1098.488,303.518a25.237,25.237,0,0,1,24.762-25.689l3.9-.069a25.238,25.238,0,0,1,25.688,24.766l.953,53.224-54.357.969Z"/><path class="cls-47" d="M884.189,298.147l1.029,56.374h0l-54.346.967h0l-1-56.362h0l.008-.028a25.237,25.237,0,0,1,24.8-25.664l3.894-.069A25.235,25.235,0,0,1,884.189,298.147Z"/><path class="cls-48" d="M823.1,304.749a25.237,25.237,0,0,1,24.762-25.689l3.9-.069a25.238,25.238,0,0,1,25.688,24.766l.952,53.223-54.356.969Z"/><path class="cls-47" d="M1021.739,296.916l1.029,56.374h0l-54.346.967h0l-1-56.362h0l.008-.027a25.236,25.236,0,0,1,24.8-25.664l3.894-.07A25.236,25.236,0,0,1,1021.739,296.916Z"/><path class="cls-48" d="M960.646,303.518a25.237,25.237,0,0,1,24.762-25.689l3.9-.069a25.238,25.238,0,0,1,25.688,24.766l.952,53.224-54.356.969Z"/></g><g id="area-2-tables"><path id="table-2.001" class="cls-49" d="M1056.312,386.958V471.8h87.59a81.47,81.47,0,0,0,81.231-81.231h0c0-1.21-.039-2.411-.092-3.609Z"/><rect id="table-2.002" class="cls-50" x="909.375" y="386.958" width="146.937" height="84.84"/><path id="table-2.003" class="cls-50" d="M755.663,386.958c-.053,1.2-.092,2.4-.092,3.609h0A81.471,81.471,0,0,0,836.8,471.8h72.572v-84.84Z"/><path id="table-2.004" class="cls-49" d="M909.375,309.335H836.8a81.481,81.481,0,0,0-81.14,77.623H909.375Z"/><rect id="table-2.005" class="cls-50" x="909.375" y="309.335" width="146.937" height="77.623"/><path id="table-2.006" class="cls-50" d="M1225.041,386.958a81.481,81.481,0,0,0-81.139-77.623h-87.59v77.623Z"/></g><g id="front_chairs" data-name="front chairs"><path class="cls-51" d="M1093.672,516.928c-1.071,2.229.025,3.294.025,3.294l4.088-.024a7.291,7.291,0,0,0,3.457,5.378,6.813,6.813,0,0,0,1.139,6.679l55.945-.289a5.969,5.969,0,0,0,3.317-5.762l6.733-6.3,4.343-.02-.049-7.422c-2.59-2.327-6.521.032-6.521.032l.01,3.825c-.6-1.374-4.543-2.047-4.543-2.047,0-1.774,5.379-24.958,5.379-24.958-1.259-4.747-7.923-5.061-7.923-5.061l-16.831.091Z"/><polygon class="cls-51" points="1136.756 536.101 1120.157 546.109 1128.222 535.531 1122.82 534.394 1113.141 546.912 1089.609 531.664 1085.086 534.594 1111.002 550.441 1092.27 559.033 1092.299 565.446 1112.176 554.961 1131.298 563.919 1133.441 560.135 1119.068 551.103 1141.048 537.141 1136.756 536.101"/><polygon class="cls-52" points="1113.424 522.944 1109.547 522.963 1109.735 516.166 1113.616 516.146 1113.424 522.944"/><ellipse class="cls-53" cx="1134.473" cy="562.749" rx="3.128" ry="2.548" transform="translate(-3.434 6.976) rotate(-0.352)"/><ellipse class="cls-53" cx="1140.823" cy="533.569" rx="2.548" ry="2.525" transform="translate(586.63 1664.518) rotate(-88.96)"/><ellipse class="cls-53" cx="1084.058" cy="534.911" rx="2.548" ry="2.525" transform="translate(529.761 1609.185) rotate(-88.971)"/><ellipse class="cls-53" cx="1093.002" cy="563.215" rx="3.128" ry="2.548" transform="translate(-3.564 6.97) rotate(-0.365)"/><ellipse class="cls-54" cx="1134.426" cy="564.636" rx="2.548" ry="2.525" transform="matrix(0.018, -1, 1, 0.018, 549.504, 1688.737)"/><circle class="cls-55" cx="1134.329" cy="564.845" r="0.912"/><polygon class="cls-56" points="1115.358 534.838 1139.325 527.638 1140.665 532.208 1116.638 539.712 1134.901 560.03 1130.683 562.545 1111.66 542.084 1092.892 562.751 1088.04 560.282 1107.001 539.056 1082.05 532.673 1083.939 528.091 1107.532 534.628 1107.483 522.92 1115.292 522.883 1115.358 534.838"/><ellipse class="cls-54" cx="1089.88" cy="564.873" rx="2.548" ry="2.525" transform="translate(505.521 1644.43) rotate(-88.971)"/><circle class="cls-55" cx="1089.785" cy="565.086" r="0.912"/><ellipse class="cls-54" cx="1138.772" cy="536.108" rx="2.548" ry="2.525" transform="translate(582.296 1665.067) rotate(-88.971)"/><circle class="cls-55" cx="1138.732" cy="536.275" r="0.912"/><ellipse class="cls-54" cx="1083.794" cy="536.561" rx="2.548" ry="2.525" transform="translate(527.853 1610.543) rotate(-88.971)"/><circle class="cls-55" cx="1083.744" cy="536.716" r="0.912"/><path class="cls-57" d="M1137.323,516.547h0a4.348,4.348,0,0,1-4.1-4.562l1-21.935a4.348,4.348,0,0,1,4.525-4.142h0a4.353,4.353,0,0,1,4.094,4.557l-1.008,21.937A4.348,4.348,0,0,1,1137.323,516.547Z"/><path class="cls-56" d="M1077.608,512.492l-1.481-23.909a4.371,4.371,0,0,1,4.014-4.605h0a4.357,4.357,0,0,1,4.563,4.049l1.477,23.91a4.368,4.368,0,0,1-4.005,4.6h0A4.353,4.353,0,0,1,1077.608,512.492Z"/><path class="cls-56" d="M1137.409,511.676l1.235-23.928a4.358,4.358,0,0,1,4.54-4.087h0a4.363,4.363,0,0,1,4.064,4.572l-1.237,23.923a4.361,4.361,0,0,1-4.54,4.087h0A4.357,4.357,0,0,1,1137.409,511.676Z"/><path class="cls-12" d="M1081.562,452.912a27.764,27.764,0,0,1,27.45-28l4.263-.022a27.74,27.74,0,0,1,27.735,27.738l.282,58.739-59.481.331Z"/><path class="cls-12" d="M1111.629,511.374l-30.392.16-.278-56.6h0a29.887,29.887,0,0,1,29.6-30.154h0"/><rect class="cls-56" x="1080.183" y="510.891" width="62.208" height="6.003" transform="translate(-2.824 6.152) rotate(-0.317)"/><path class="cls-56" d="M1073.42,478.218a2.805,2.805,0,0,1,2.821,2.786l.014.04.057,8.957h0a2.838,2.838,0,0,1-2.81,2.865l-1.059.008a2.839,2.839,0,0,1-2.84-2.837v0l-.059-8.952h0a2.833,2.833,0,0,1,2.809-2.854l1.06,0Z"/><path class="cls-56" d="M1146.44,489.581l-.049-8.95a2.848,2.848,0,0,1,2.831-2.864h1a2.852,2.852,0,0,1,2.862,2.831h0l.046,8.956a2.848,2.848,0,0,1-2.831,2.864h-1a2.848,2.848,0,0,1-2.859-2.836Z"/><polygon class="cls-54" points="1146.366 489.637 1145.669 503.528 1149.75 491.702 1146.366 489.637"/><polygon class="cls-54" points="1076.235 490.008 1077.059 503.892 1073.421 492.82 1076.235 490.008"/><path class="cls-51" d="M839.645,519.937c-1.071,2.229.025,3.294.025,3.294l4.089-.024a7.287,7.287,0,0,0,3.456,5.378,6.811,6.811,0,0,0,1.14,6.679l55.944-.289a5.969,5.969,0,0,0,3.317-5.762l6.733-6.3,4.343-.02-.049-7.422c-2.589-2.327-6.52.032-6.52.032l.01,3.825c-.6-1.374-4.544-2.047-4.544-2.047,0-1.774,5.379-24.958,5.379-24.958-1.259-4.747-7.922-5.062-7.922-5.062l-16.832.092Z"/><polygon class="cls-51" points="882.73 539.11 866.131 549.118 874.195 538.54 868.793 537.403 859.114 549.921 835.582 534.673 831.059 537.603 856.976 553.45 838.243 562.042 838.272 568.455 858.149 557.97 877.272 566.928 879.414 563.144 865.042 554.112 887.021 540.15 882.73 539.11"/><polygon class="cls-52" points="859.398 525.953 855.521 525.972 855.708 519.175 859.59 519.155 859.398 525.953"/><ellipse class="cls-53" cx="880.447" cy="565.758" rx="3.128" ry="2.548" transform="translate(-3.457 5.416) rotate(-0.352)"/><ellipse class="cls-53" cx="886.796" cy="536.578" rx="2.548" ry="2.525" transform="translate(334.207 1413.487) rotate(-88.96)"/><ellipse class="cls-53" cx="830.031" cy="537.92" rx="2.548" ry="2.525" transform="translate(277.289 1358.154) rotate(-88.971)"/><ellipse class="cls-53" cx="838.976" cy="566.223" rx="3.128" ry="2.548" transform="translate(-3.588 5.353) rotate(-0.365)"/><ellipse class="cls-54" cx="880.399" cy="567.645" rx="2.548" ry="2.525" transform="matrix(0.018, -1, 1, 0.018, 297.031, 1437.706)"/><circle class="cls-55" cx="880.303" cy="567.854" r="0.912"/><polygon class="cls-56" points="861.332 537.847 885.298 530.647 886.638 535.216 862.611 542.721 880.875 563.039 876.657 565.554 857.633 545.093 838.865 565.76 834.014 563.291 852.975 542.065 828.023 535.682 829.913 531.1 853.505 537.637 853.457 525.929 861.266 525.892 861.332 537.847"/><ellipse class="cls-54" cx="835.853" cy="567.882" rx="2.548" ry="2.525" transform="translate(253.049 1393.4) rotate(-88.971)"/><circle class="cls-55" cx="835.759" cy="568.095" r="0.912"/><ellipse class="cls-54" cx="884.746" cy="539.117" rx="2.548" ry="2.525" transform="translate(329.823 1414.036) rotate(-88.971)"/><circle class="cls-55" cx="884.706" cy="539.283" r="0.912"/><ellipse class="cls-54" cx="829.768" cy="539.57" rx="2.548" ry="2.525" transform="translate(275.381 1359.512) rotate(-88.971)"/><circle class="cls-55" cx="829.718" cy="539.725" r="0.912"/><path class="cls-57" d="M883.3,519.556h0a4.349,4.349,0,0,1-4.1-4.562l1-21.935a4.349,4.349,0,0,1,4.526-4.142h0a4.352,4.352,0,0,1,4.093,4.557l-1.007,21.937A4.349,4.349,0,0,1,883.3,519.556Z"/><path class="cls-56" d="M823.582,515.5,822.1,491.592a4.371,4.371,0,0,1,4.014-4.6h0a4.358,4.358,0,0,1,4.563,4.049l1.476,23.909a4.367,4.367,0,0,1-4,4.6h0A4.352,4.352,0,0,1,823.582,515.5Z"/><path class="cls-56" d="M883.382,514.685l1.235-23.928a4.358,4.358,0,0,1,4.54-4.087h0a4.362,4.362,0,0,1,4.064,4.572l-1.237,23.923a4.362,4.362,0,0,1-4.539,4.087h0A4.357,4.357,0,0,1,883.382,514.685Z"/><path class="cls-12" d="M827.536,455.921a27.762,27.762,0,0,1,27.45-28l4.263-.022a27.741,27.741,0,0,1,27.735,27.738l.282,58.739-59.482.331Z"/><path class="cls-12" d="M857.6,514.383l-30.393.16-.277-56.6h0a29.887,29.887,0,0,1,29.594-30.154h0"/><rect class="cls-56" x="826.156" y="513.9" width="62.208" height="6.003" transform="translate(-2.845 4.748) rotate(-0.317)"/><path class="cls-56" d="M819.393,481.227a2.806,2.806,0,0,1,2.822,2.786l.014.039.056,8.958h0a2.838,2.838,0,0,1-2.81,2.865l-1.058.007a2.837,2.837,0,0,1-2.84-2.836v0l-.059-8.952h0a2.833,2.833,0,0,1,2.808-2.854l1.06,0Z"/><path class="cls-56" d="M892.414,492.59l-.049-8.95a2.847,2.847,0,0,1,2.831-2.864h1a2.852,2.852,0,0,1,2.862,2.831h0l.046,8.956a2.848,2.848,0,0,1-2.831,2.864h-1a2.847,2.847,0,0,1-2.859-2.836Z"/><polygon class="cls-54" points="892.339 492.646 891.643 506.537 895.724 494.711 892.339 492.646"/><polygon class="cls-54" points="822.208 493.017 823.032 506.901 819.395 495.829 822.208 493.017"/><path class="cls-51" d="M969.892,516.709c-1.07,2.229.026,3.294.026,3.294l4.088-.024a7.291,7.291,0,0,0,3.457,5.378,6.813,6.813,0,0,0,1.139,6.679l55.945-.289a5.972,5.972,0,0,0,3.316-5.762l6.734-6.3,4.343-.02-.049-7.423c-2.59-2.327-6.521.033-6.521.033l.01,3.825c-.6-1.375-4.544-2.047-4.544-2.047,0-1.774,5.379-24.958,5.379-24.958-1.259-4.747-7.922-5.062-7.922-5.062l-16.831.092Z"/><polygon class="cls-51" points="1012.977 535.882 996.378 545.89 1004.443 535.312 999.04 534.175 989.361 546.693 965.829 531.444 961.307 534.375 987.223 550.222 968.491 558.813 968.519 565.226 988.397 554.742 1007.519 563.7 1009.662 559.916 995.289 550.883 1017.269 536.922 1012.977 535.882"/><polygon class="cls-52" points="989.645 522.725 985.768 522.744 985.956 515.947 989.837 515.927 989.645 522.725"/><ellipse class="cls-53" cx="1010.694" cy="562.53" rx="3.128" ry="2.548" transform="translate(-3.435 6.216) rotate(-0.352)"/><ellipse class="cls-53" cx="1017.044" cy="533.35" rx="2.548" ry="2.525" transform="translate(465.318 1540.544) rotate(-88.96)"/><ellipse class="cls-53" cx="960.278" cy="534.691" rx="2.548" ry="2.525" transform="translate(408.424 1485.211) rotate(-88.971)"/><ellipse class="cls-53" cx="969.223" cy="562.995" rx="3.128" ry="2.548" transform="translate(-3.565 6.182) rotate(-0.365)"/><ellipse class="cls-54" cx="1010.646" cy="564.417" rx="2.548" ry="2.525" transform="matrix(0.018, -1, 1, 0.018, 428.167, 1564.762)"/><circle class="cls-55" cx="1010.55" cy="564.626" r="0.912"/><polygon class="cls-56" points="991.579 534.619 1015.546 527.418 1016.886 531.988 992.858 539.493 1011.122 559.81 1006.904 562.326 987.88 541.865 969.113 562.531 964.261 560.063 983.222 538.837 958.271 532.454 960.16 527.872 983.753 534.409 983.704 522.701 991.513 522.664 991.579 534.619"/><ellipse class="cls-54" cx="966.101" cy="564.654" rx="2.548" ry="2.525" transform="translate(384.185 1520.456) rotate(-88.971)"/><circle class="cls-55" cx="966.006" cy="564.866" r="0.912"/><ellipse class="cls-54" cx="1014.993" cy="535.889" rx="2.548" ry="2.525" transform="translate(460.959 1541.092) rotate(-88.971)"/><circle class="cls-55" cx="1014.953" cy="536.055" r="0.912"/><ellipse class="cls-54" cx="960.015" cy="536.342" rx="2.548" ry="2.525" transform="translate(406.516 1486.568) rotate(-88.971)"/><circle class="cls-55" cx="959.965" cy="536.497" r="0.912"/><path class="cls-57" d="M1013.544,516.328h0a4.348,4.348,0,0,1-4.1-4.562l1-21.936a4.348,4.348,0,0,1,4.525-4.141h0a4.353,4.353,0,0,1,4.094,4.557l-1.008,21.937A4.348,4.348,0,0,1,1013.544,516.328Z"/><path class="cls-56" d="M953.829,512.272l-1.481-23.908a4.37,4.37,0,0,1,4.014-4.6h0a4.357,4.357,0,0,1,4.563,4.048l1.477,23.91a4.368,4.368,0,0,1-4,4.6h0A4.354,4.354,0,0,1,953.829,512.272Z"/><path class="cls-56" d="M1013.63,511.456l1.235-23.927a4.357,4.357,0,0,1,4.539-4.087h0a4.362,4.362,0,0,1,4.065,4.572l-1.237,23.923a4.363,4.363,0,0,1-4.54,4.087h0A4.356,4.356,0,0,1,1013.63,511.456Z"/><path class="cls-12" d="M957.783,452.693a27.765,27.765,0,0,1,27.45-28l4.263-.021a27.739,27.739,0,0,1,27.735,27.737l.282,58.74-59.481.331Z"/><path class="cls-12" d="M987.85,511.154l-30.392.161-.278-56.6h0a29.887,29.887,0,0,1,29.594-30.153h0"/><rect class="cls-56" x="956.403" y="510.672" width="62.208" height="6.003" transform="translate(-2.825 5.468) rotate(-0.317)"/><path class="cls-56" d="M949.641,478a2.805,2.805,0,0,1,2.821,2.786l.014.039.057,8.958h0a2.837,2.837,0,0,1-2.81,2.864l-1.059.008a2.837,2.837,0,0,1-2.84-2.836v0l-.059-8.952h0a2.833,2.833,0,0,1,2.808-2.854l1.061,0Z"/><path class="cls-56" d="M1022.661,489.362l-.049-8.951a2.847,2.847,0,0,1,2.831-2.863h1a2.852,2.852,0,0,1,2.863,2.83h0l.046,8.957a2.847,2.847,0,0,1-2.831,2.863h-1a2.848,2.848,0,0,1-2.859-2.836Z"/><polygon class="cls-54" points="1022.587 489.418 1021.89 503.309 1025.971 491.483 1022.587 489.418"/><polygon class="cls-54" points="952.456 489.789 953.279 503.673 949.642 492.601 952.456 489.789"/></g><g id="dividers"><line class="cls-58" x1="755.663" y1="386.958" x2="1228.876" y2="386.958"/><line class="cls-58" x1="909.375" y1="309.335" x2="909.375" y2="471.798"/><line class="cls-58" x1="1057.059" y1="309.335" x2="1057.059" y2="471.798"/></g></g><g id="area-2-bookings"><rect id="area-2.01-status" class="cls-59" x="5.5" y="189.357" width="585.887" height="312.188"/><text class="cls-60" transform="translate(158.44 330.089)">Meeting Room<tspan x="100.042" y="52.8">2.01</tspan></text></g><g id="skeleton"><rect class="cls-61" x="5.5" y="189.357" width="585.887" height="312.188"/></g></svg>